<svg width="160" height="160" viewBox="0 0 160 160" fill="none" xmlns="http://www.w3.org/2000/svg">
<rect width="160" height="160" fill="#F5F5F5"/>
<path d="M35.984 79.156H50.432C53.456 79.156 55.724 78.484 57.236 77.14C58.748 75.796 59.504 73.612 59.504 70.588C59.504 67.676 58.748 65.576 57.236 64.288C55.724 62.944 53.456 62.272 50.432 62.272H35.984V79.156ZM22.796 52.024H55.136C57.824 52.024 60.232 52.472 62.36 53.368C64.544 54.208 66.392 55.384 67.904 56.896C69.472 58.408 70.648 60.172 71.432 62.188C72.272 64.148 72.692 66.276 72.692 68.572C72.692 72.1 71.936 75.152 70.424 77.728C68.968 80.304 66.56 82.264 63.2 83.608V83.776C64.824 84.224 66.168 84.924 67.232 85.876C68.296 86.772 69.164 87.864 69.836 89.152C70.508 90.384 70.984 91.756 71.264 93.268C71.6 94.78 71.824 96.292 71.936 97.804C71.992 98.756 72.048 99.876 72.104 101.164C72.16 102.452 72.244 103.768 72.356 105.112C72.524 106.456 72.748 107.744 73.028 108.976C73.364 110.152 73.84 111.16 74.456 112H61.268C60.54 110.096 60.092 107.828 59.924 105.196C59.756 102.564 59.504 100.044 59.168 97.636C58.72 94.5 57.768 92.204 56.312 90.748C54.856 89.292 52.476 88.564 49.172 88.564H35.984V112H22.796V52.024ZM94.4211 61.852H82.4931V52.024H94.4211V61.852ZM82.4931 68.572H94.4211V112H82.4931V68.572ZM101.125 103.012L123.721 77.56H102.805V68.572H139.429V77.56L116.833 103.012H141.025V112H101.125V103.012Z" fill="#141414"/>
</svg>
